# xmcd
#
# Track frame offsets:
#	150
#	21630
#	41285
#	59617
#	78732
#	98565
#	119495
#	138375
#	156262
#
# Disc length: 2325 seconds
#
# Revision: 7
# Processed by: cddbd v1.5.2PL0 Copyright (c) Steve Scherf et al.
# Submitted via: EasyCDDAExtractor 15.3.0.1
#
DISCID=7a091309
DTITLE=Manny Manuel - Lleno De Vida
DYEAR=1999
DGENRE=Latin
TTITLE0=En Las Nubes
TTITLE1=Penas
TTITLE2=Mala Mia
TTITLE3=Culpable O No
TTITLE4=Eres Tu
TTITLE5=Pensando En Ti
TTITLE6=Vivir Asi, Es Morir De Amor
TTITLE7=Todavia Creo En El Amor
TTITLE8=Ponte En Mi Lugar
EXTD=
EXTT0=
EXTT1=
EXTT2=
EXTT3=
EXTT4=
EXTT5=
EXTT6=
EXTT7=
EXTT8=
PLAYORDER=
